<?xml version="1.0" encoding="UTF-8"?>
<svg width="151px" height="76px" viewBox="0 0 151 76" version="1.1" xmlns="http://www.w3.org/2000/svg" xmlns:xlink="http://www.w3.org/1999/xlink">
    <!-- Generator: Sketch 47.1 (45422) - http://www.bohemiancoding.com/sketch -->
    <title>Page 1</title>
    <desc>Created with Sketch.</desc>
    <defs>
        <polygon id="path-1" points="9.21030973e-05 0 150.437613 0 150.437613 76.0579311 9.21030973e-05 76.0579311"></polygon>
    </defs>
    <g id="Page-1" stroke="none" stroke-width="1" fill="none" fill-rule="evenodd">
        <g id="Suites-and-rooms-1920---reviews" transform="translate(-886.000000, -1138.000000)">
            <g id="headline" transform="translate(133.000000, 1138.000000)">
                <g id="Page-1" transform="translate(828.500000, 38.500000) rotate(-360.000000) translate(-828.500000, -38.500000) translate(753.000000, 0.000000)">
                    <mask id="mask-2" fill="white">
                        <use xlink:href="#path-1"></use>
                    </mask>
                    <g id="Clip-2"></g>
                    <path d="M33.106897,41.2439304 C33.1163398,41.2638099 33.1237946,41.2836894 33.1332374,41.3040659 C37.2194717,39.663012 42.1759318,35.9783439 47.2342744,32.3766727 C52.2215477,28.7377275 57.3107035,25.1812823 60.0023899,22.9249573 C57.8216071,23.429897 55.6845592,24.0148517 53.5962162,24.6733607 C53.2925566,24.9143998 52.986909,25.1604088 52.6713217,25.4183455 C40.1432514,36.0255577 35.0501196,40.3761896 33.106897,41.2439304 M28.3243827,43.4987644 C31.4976503,42.1762797 35.3960232,38.6034338 39.5647575,34.9997747 C43.6683864,31.3712663 48.0413827,27.7134355 50.7002678,25.644972 C49.1402229,26.2006044 47.6119852,26.7964929 46.1185366,27.4311464 C45.4321963,28.0444294 44.6936723,28.7342486 43.9034616,29.5170045 C35.812996,37.5344129 29.6707228,42.6285386 28.312952,43.4460837 C28.3169279,43.4634783 28.3204068,43.4808728 28.3243827,43.4987644 M40.3057664,37.9160996 C40.323658,37.9344881 40.3405555,37.9533737 40.3574531,37.9717622 C45.897874,36.0335095 51.3528129,32.323495 56.1691224,28.9832395 C60.9133686,25.6245955 65.0189855,22.6352134 66.187901,21.7287075 C64.8172084,21.9434063 63.4574496,22.1874273 62.1116064,22.4637526 C49.4190331,32.3831336 42.6112931,36.9444883 40.3057664,37.9160996 M23.7923503,45.9588544 C26.3940818,44.7104208 29.8153463,41.261325 33.5710837,37.7322141 C37.2726494,34.1817327 41.3081909,30.5512363 43.8741393,28.4246251 C42.4408263,29.0841281 41.0437934,29.7779231 39.6835376,30.5035254 C39.4012485,30.7723959 39.1134925,31.0492181 38.8143058,31.342938 C28.9789157,41.34134 25.2201964,45.1278907 23.7814165,45.9046827 C23.7848954,45.9225743 23.7888713,45.9409628 23.7923503,45.9588544 M47.9524218,35.2890217 C47.9737923,35.3049253 47.9946658,35.3208289 48.0175273,35.3362355 C57.7167426,31.8011608 67.3011538,24.291177 72.0364543,21.0185118 C70.6190449,21.1427588 69.2100842,21.300304 67.8135483,21.4916443 C56.7217729,30.2873357 50.2206745,34.3049857 47.9524218,35.2890217 M116.154565,3.92660181 C116.030815,4.55926737 102.102233,15.7857265 98.772414,17.3770817 C102.995817,12.9091607 113.273526,4.67605952 108.340922,1.49086423 C108.257428,1.49533712 108.174928,1.49981001 108.092925,1.50477989 C108.592894,4.58709869 100.807082,11.6164952 95.6891013,16.3627294 C97.3897938,12.5558023 108.232081,3.86795724 98.6387243,0.0953222745 C98.5428056,0.106752996 98.447384,0.119177693 98.3514653,0.130608414 C99.6987994,1.64244553 97.1164504,10.0892515 92.6405776,15.9383018 C94.5629267,12.1706367 98.0850798,3.30288202 86.3561659,-9.93975751e-05 C86.2677021,0.0207740932 86.1782443,0.0411505961 86.0882895,0.0620240869 C92.256406,2.95499051 91.1123399,12.7536035 86.6319942,16.5560577 C87.1493586,14.6694917 88.1527771,11.2049892 86.76469,7.85628494 C85.3885305,4.56324327 81.6183805,1.38500581 72.8763638,1.33977991 C72.7998277,1.37158714 72.7247825,1.40339436 72.6487433,1.43520159 C83.9442838,4.21883068 84.9004885,13.304266 82.8528984,16.3274433 C81.7311968,11.9390403 77.0455951,1.76371057 62.414272,3.11700856 C62.3491666,3.15527662 62.2855522,3.1930477 62.2214407,3.23131577 C65.4523589,3.05737001 76.7727487,5.80223405 78.8258057,16.3925487 C77.7905799,14.3280611 75.5809718,10.9962543 71.267614,8.48000472 C67.004949,5.98959848 60.6385344,4.31574331 52.4635808,6.17000508 C52.412888,6.21224904 52.3607043,6.25449301 52.3095145,6.29673698 C66.5869822,6.02886052 73.8494661,14.9960128 73.3092402,17.3378196 C71.6304152,15.3319766 68.44025,12.3465704 63.5076454,10.4247183 C58.6292124,8.51032098 52.0078429,7.65997473 44.6703139,10.0798087 C44.5296663,10.2144924 44.3910067,10.3491761 44.2518501,10.4833628 C47.659696,9.59773045 58.9204473,9.62357382 68.4472079,17.7572774 C66.5735636,16.4497023 62.9127509,13.8688443 57.1029626,12.5886035 C51.3687165,11.3202904 43.4864888,11.3516007 34.8975443,15.5446874 C34.87021,15.5894163 34.8428757,15.6346422 34.8160383,15.6798681 C48.5388675,11.0300495 63.315311,15.6927898 64.2789705,18.632473 C61.0366216,17.3934823 55.487255,15.6331512 48.6810061,15.5054253 C41.9319107,15.3429103 33.9249391,16.8125034 27.1027865,21.2222769 C27.0893678,21.2655148 27.0739612,21.3077588 27.0605425,21.3500027 C30.0444577,19.6075633 44.790088,15.0725489 60.1559591,20.2625933 C56.4041977,19.4291446 49.9105541,18.3312984 42.4890341,19.0961627 C35.1196979,19.7974126 26.8214914,22.362864 20.6682845,27.407788 C20.6648056,27.446553 20.6608297,27.4848211 20.6583447,27.5235861 C21.9450463,26.6876525 26.7683137,24.1564933 33.5109482,22.407096 C40.2133266,20.6154547 48.8345753,19.6055753 56.7655078,20.8381052 C52.4079181,20.7734968 45.2632205,20.7297619 37.862574,22.2053189 C30.484789,23.5973819 22.8515522,26.5092339 18.0451825,30.4304682 C18.0576072,30.4468688 18.0690379,30.4627724 18.0819596,30.479173 C20.5609351,29.0001371 31.5657376,22.1039333 52.3254182,21.8937075 C47.8435815,22.0219303 41.1108868,22.6068851 34.2778005,24.5824119 C27.4541569,26.4938273 20.5271399,29.7953177 15.8738424,33.8885099 C15.8877581,33.9034195 15.9001828,33.9178321 15.9126075,33.9332388 C18.2236011,32.3031185 29.3615964,25.0903335 48.2545905,23.3618097 C43.2583714,23.9736017 36.017755,25.3775925 29.1419277,28.1085409 C22.2571547,30.7634501 15.7371708,34.7453169 12.0087677,38.7460693 C12.0306352,38.7535242 12.0525027,38.761476 12.0728792,38.7689308 C13.2398067,37.737184 15.8355744,35.6135548 21.0221398,32.8522901 C26.1987656,30.1601068 33.9651951,26.8297911 45.2542747,24.9814931 C40.4076489,25.88949 33.0571982,27.7283451 26.1167626,31.0193988 C19.1624112,34.2229827 12.6205598,38.8792621 9.07952119,43.4117915 C9.10735252,43.4132825 9.13468685,43.4147734 9.16202118,43.4157674 C10.2245813,42.3139453 12.4610267,40.0203463 17.4572458,36.7297895 C22.4534649,33.5306786 30.2104517,29.3346099 42.3026637,26.5365682 C37.4704506,27.7029988 30.1021083,30.071146 23.3594738,33.8502418 C16.590499,37.5383888 10.4437529,42.6389754 7.44194615,47.163056 C7.47375337,47.1580861 7.50406963,47.1536132 7.53687083,47.1491403 C8.46077129,46.0537791 10.5366896,43.6558126 15.2794449,40.0784938 C20.0296551,36.589142 27.4471991,31.9219288 39.2387334,28.3331794 C34.6917914,29.8862665 26.7638408,33.2498804 19.8109804,38.2083285 C12.7945056,43.0415356 6.75312095,49.4690797 4.49182612,54.2486121 C4.52661527,54.2356905 4.56041044,54.2217748 4.59321164,54.2083561 C5.35708201,53.0126033 7.05628355,50.442182 11.505319,46.1357821 C15.9886466,41.9431923 23.2218082,36.014127 35.8462942,30.7107694 C32.1019875,32.3508294 23.9648051,36.4857685 17.0974266,42.368117 C10.1207108,48.0924233 4.41330203,55.565133 3.00732333,60.2268793 C3.04310646,60.2030239 3.08038055,60.1801624 3.11616368,60.157301 C3.67726299,59.0211867 5.2179254,56.0541691 9.37175007,51.1419409 C13.5658307,46.3315953 20.3745646,39.5765361 32.3837797,33.2046545 C32.3778158,33.2061455 31.1785841,33.8263864 31.1751051,33.8323502 C27.5446087,35.8401812 19.5431039,41.0630268 13.2591892,47.8151041 C6.82319624,54.4096362 2.10330239,62.532406 1.52381452,66.7240018 C1.56009464,66.6926916 1.59786572,66.6608843 1.63414583,66.6290771 C1.98849819,65.649514 3.33682629,62.2943489 6.73622336,57.2245755 C10.152021,52.204501 15.6183907,45.4688243 24.5631785,38.9075904 C20.236899,42.1827405 12.8660718,49.2364894 7.83257862,56.9765786 C2.61023002,64.6018636 -0.275778572,72.9129918 0.0209231896,76.0579311 C0.0547183651,76.0151901 0.087022577,75.9724492 0.119326789,75.9302052 C0.267926164,74.8189403 0.721676094,72.1212901 3.36018472,66.2439115 C6.12542526,60.5017136 11.0764185,51.5787933 23.1432841,41.1425449 C23.9290219,40.482048 24.6824555,39.867771 25.4060699,39.294247 C25.4060699,39.293253 25.4060699,39.292259 25.4065669,39.2902711 C39.8664291,26.3998965 64.3346332,17.3984521 89.4941474,20.3609969 C105.861449,22.0731201 121.394805,28.6507546 132.936355,37.4548948 C146.388822,41.6102105 152.887436,41.1519876 149.591909,35.4331482 C149.484063,35.3680428 149.37572,35.3019434 149.267376,35.236838 C147.313717,36.5757233 134.49143,34.8695639 131.034879,34.0952568 C138.342589,33.3979828 149.342421,34.1757688 147.545313,30.6073959 C147.333596,30.4538266 147.121383,30.2997604 146.908175,30.1471851 C146.781443,30.7813417 142.402483,30.5671399 137.980285,30.5835405 C133.530255,30.5328477 129.038479,30.7127573 128.057425,30.5904983 C132.255978,28.8753932 146.256624,28.3187667 144.472437,25.480469 C144.358627,25.4297762 144.245314,25.3800774 144.131503,25.3298816 C144.150886,25.6146557 139.524426,25.9039026 134.873613,26.5619146 C130.18503,27.1498512 125.4711,28.1070499 124.436868,28.1333903 C125.947214,27.4535108 130.355,26.1792339 134.459622,25.0833757 C138.533432,23.9383156 142.305073,22.9721712 141.823492,21.78934 C141.714651,21.7396412 141.606805,21.6904394 141.498462,21.6407406 C141.0467,21.8216442 135.688176,22.2888128 130.406686,23.2420356 C125.075994,24.1117644 119.822335,25.4675473 118.42083,25.5152581 C124.220181,22.8802284 138.860947,20.7307558 137.101113,16.380621 C136.990782,16.340365 136.880947,16.299115 136.771113,16.2588589 C136.790993,16.7170818 131.761475,17.9615394 126.604232,19.5926536 C121.391823,21.1507106 116.051688,23.0954242 114.175062,23.2738428 C120.357591,20.5076083 133.315556,16.7235426 131.725195,13.9866304 C131.631264,13.9642659 131.538328,13.9419015 131.443403,13.919537 C131.415572,14.249537 126.030211,15.5784825 120.828239,17.4073979 C115.562155,19.1548073 110.479957,21.4026835 109.553572,21.6710569 C110.926253,20.559295 115.660062,18.1702743 120.085242,16.0436632 C124.458238,13.8613894 128.519623,11.9415253 127.359157,10.4595074 C127.264729,10.4445978 127.170301,10.4291912 127.07488,10.4137845 C127.116627,10.804914 122.005106,12.7501245 116.960679,15.0457115 C111.847171,17.2682413 106.798271,19.8411476 105.392293,19.8346867 C111.727894,15.6987536 124.283796,10.4962845 121.864459,7.37768561 C121.775498,7.36824284 121.688525,7.35830309 121.601552,7.34886032 C121.669142,7.79018555 117.537682,10.1831822 113.314776,12.8366004 C109.038196,15.4442958 104.671163,18.3124128 103.050486,18.6667652 C108.820515,13.7813744 119.234896,7.51883017 116.409023,3.94250542 C116.323541,3.93703855 116.23955,3.93157168 116.154565,3.92660181 M18.5302426,48.803613 C24.0264315,46.3047579 32.6039453,36.2904523 38.0713089,31.3871699 C36.7662187,32.1237059 35.4944268,32.8875763 34.2663697,33.676296 C34.0228457,33.9083894 33.7758427,34.1449556 33.5228759,34.3909646 C23.5294437,44.4738546 19.9242936,48.0596221 18.5237818,48.7419865 C18.5267637,48.763357 18.5277577,48.7832365 18.5302426,48.803613 M11.2911172,56.5317744 C11.2776986,56.6172564 11.2657709,56.7027383 11.2533462,56.7882202 C16.8931646,46.7694416 23.721281,44.4007974 30.3759486,36.3490968 C29.1414308,37.2287654 26.5252866,39.2594578 26.5342324,39.2693976 C22.1930433,44.045948 15.0284661,47.4766554 11.2911172,56.5317744 M66.4423588,30.1024562 C66.4622383,30.1213418 66.4811238,30.1397303 66.5010033,30.1586158 C76.0337278,28.6303781 85.7254883,24.0337373 91.6262254,21.4911473 C90.6789665,21.3624274 89.7312106,21.2486172 88.7779879,21.1497166 C88.3774156,21.1084666 87.9763464,21.0721865 87.5762712,21.0359064 C75.7961676,27.0082097 68.8169668,29.5597455 66.4423588,30.1024562 M94.5763454,28.8753932 C94.59374,28.8992486 94.6116315,28.922607 94.6290261,28.9454684 C102.511751,29.782396 110.756283,29.3470346 117.341869,29.0980437 C115.733616,28.3381493 114.089083,27.6209958 112.409264,26.9510561 C102.761239,28.6005589 96.725321,28.9385106 94.5763454,28.8753932 M85.2230336,28.2372607 C85.2369492,28.2601222 85.2508649,28.2829836 85.2642836,28.306839 C94.0987401,28.9171401 103.997248,27.2552127 110.983903,26.3998965 C109.459641,25.8218996 107.91053,25.2841588 106.33806,24.7866739 C94.3531978,27.4112669 87.5464519,28.2442185 85.2230336,28.2372607 M120.464444,31.6436156 C113.408707,31.7410252 105.343588,32.0715222 103.520139,31.7966879 C103.543498,31.8130885 103.566856,31.8289921 103.590214,31.8458897 C111.158346,33.6931936 117.871658,33.7369285 122.353495,33.4973804 C116.786734,33.9009345 110.833316,34.1996243 109.36422,33.8845339 C109.38559,33.9024255 109.40547,33.9198201 109.42684,33.9372147 C115.283842,35.7467475 120.372501,35.7929674 124.081522,35.4172446 C119.939128,35.9753619 115.746538,36.2144131 114.57961,35.8794433 C114.59949,35.8993228 114.619369,35.9182083 114.639746,35.9375909 C118.085363,37.2625605 121.075739,37.6651207 123.598946,37.6064761 C121.885332,37.8211749 120.45848,37.8480123 119.841718,37.6387804 C119.862592,37.6586599 119.883962,37.6785394 119.903842,37.6984189 C126.057545,40.318539 133.406008,41.4203611 131.805707,37.7660093 C127.864096,34.8293079 123.474202,32.1132692 118.732441,29.7704683 C110.343286,29.7888569 100.720607,30.3092032 98.7063146,30.1899261 C98.7276851,30.2038417 98.7490556,30.2172604 98.7704261,30.2301821 C106.67303,31.3976066 114.755047,31.4960102 120.464444,31.6436156 M62.5628714,30.767426 C62.5872238,30.7828326 62.6115762,30.7977423 62.6364256,30.8136459 C71.473864,28.5399263 79.5812272,23.9283758 84.9884553,20.8425781 C83.6778983,20.764054 82.3663473,20.7148522 81.0587722,20.6949727 C71.2636381,27.0847458 64.7903711,30.0045496 62.5628714,30.767426 M53.8541529,33.2021696 C53.8750264,33.2195642 53.8954029,33.2359648 53.9157794,33.2523654 C63.807329,30.3608899 74.3161377,23.6058307 79.6562724,20.683045 C77.9739684,20.684536 76.2961374,20.7342348 74.62924,20.8306504 C62.9634436,28.801342 56.1904929,32.3692179 53.8541529,33.2021696 M75.9492398,28.4435107 C75.9616645,28.4653782 75.9750832,28.4877426 75.9880049,28.5101071 C82.8166183,27.652306 90.41109,24.6639179 96.7869475,22.3504393 C95.2780923,22.0527436 93.7588003,21.7943099 92.2300656,21.5751382 C82.2425973,26.8158754 78.0554744,28.0275318 75.9492398,28.4435107 M98.4945978,22.7028037 C100.172429,23.0665989 101.832865,23.4781048 103.473422,23.9353337 C98.1824894,25.3929991 89.470789,27.4912819 79.1334411,28.7794745 C79.1563026,28.7108902 79.179661,28.6418088 79.2030195,28.5727275 C81.7316938,28.2347758 85.7667383,27.2094898 98.4945978,22.7028037" id="Fill-1" fill="#A49169" mask="url(#mask-2)"></path>
                </g>
            </g>
        </g>
    </g>
</svg>