<?xml version="1.0" encoding="utf-8"?>
<!-- Generator: Adobe Illustrator 21.1.0, SVG Export Plug-In . SVG Version: 6.00 Build 0)  -->
<svg version="1.1" id="Layer_1" xmlns="http://www.w3.org/2000/svg" xmlns:xlink="http://www.w3.org/1999/xlink" x="0px" y="0px"
	 viewBox="0 0 24.7 13.3" style="enable-background:new 0 0 24.7 13.3;" xml:space="preserve">
<style type="text/css">
	.st0{fill:#C6C2B7;}
</style>
<title>Slippers@3x</title>
<path class="st0" d="M24.5,9c-0.5-1.1-1.4-1.8-2.6-2l-1.3-0.3l-1.7-0.4c-0.7-0.2-1.3-0.5-1.9-0.8c-0.9-0.5-1.8-1.1-2.7-1.8
	c-0.6-0.5-1.2-1-1.7-1.4c-0.8-0.7-1.4-1.3-1.7-1.5c-0.5-0.4-1.2-0.4-1.7,0C9,0.8,8.9,1,8.7,1.1l0,0C8.6,1.3,8.4,1.5,8.3,1.8
	C8,2.4,8,3.1,8.4,3.8H8.3C7.7,4,7,4.2,6.3,4.2l0,0C5.6,4.1,5,3.8,4.6,3.2v0C4.2,2.8,3.8,2.4,3.3,2.1l0,0C3.1,1.9,2.8,1.8,2.5,1.7
	H2.4c-0.2-0.1-0.5-0.1-0.7,0C1.4,1.7,1.2,1.9,1,2.1C0.9,2.3,0.8,2.5,0.8,2.7l0,0C0.6,3.6,0.4,4.5,0.3,5.4l0,0L0.2,6.1l0,0
	C0.1,6.8,0.1,7.4,0,7.9l0,0c0,0.5,0,1,0,1.4c0.3,3.8,1.7,3.8,4,3.8l0,0h2.3h15.5c1,0,1.9-0.5,2.5-1.3c0.3-0.4,0.4-0.8,0.5-1.3
	C24.8,9.9,24.7,9.5,24.5,9L24.5,9z M13.4,5.3c0.3,0.3,0.6,0.5,1,0.7 M15.4,6.6l0.7,0.4c0.7,0.4,1.5,0.8,2.4,1l1.8,0.4l1.3,0.3
	c0.5,0.1,1,0.4,1.2,0.9c0.1,0.2,0.1,0.3,0.1,0.5c0,0.2-0.1,0.3-0.2,0.5l0,0c-0.2,0.3-0.5,0.4-0.8,0.4H7.5H6.2c-0.6,0-1.3,0-2.2,0
	l0,0c-1.2,0-2,0-2.1-2c0-0.4,0-0.8,0-1.1l0,0c0-0.5,0.1-1,0.2-1.5l0,0l0.1-0.8l0,0C2.2,5,2.3,4.4,2.4,3.8C2.7,4,2.9,4.3,3.1,4.5
	l0.1,0.1c0.7,1,1.9,1.6,3.1,1.5c1,0,1.9-0.2,2.8-0.6c0.4-0.2,0.7-0.4,0.9-0.7c0.4-0.4,0.5-0.9,0.4-1.4l0,0c-0.1-0.3-0.2-0.5-0.4-0.7
	c0,0,0-0.1,0-0.2l0,0l0,0c0.4,0.3,0.8,0.7,1.4,1.2c0.3,0.3,0.7,0.6,1.1,0.9"/>
</svg>
