<?xml version="1.0" encoding="utf-8"?>
<!-- Generator: Adobe Illustrator 21.1.0, SVG Export Plug-In . SVG Version: 6.00 Build 0)  -->
<svg version="1.1" id="Layer_1" xmlns="http://www.w3.org/2000/svg" xmlns:xlink="http://www.w3.org/1999/xlink" x="0px" y="0px"
	 viewBox="0 0 22.5 13.5" style="enable-background:new 0 0 22.5 13.5;" xml:space="preserve">
<style type="text/css">
	.st0{fill:#C6C2B7;}
</style>
<title>Sofa Line@3x</title>
<path class="st0" d="M21.7,13.5h-21c-0.4,0-0.8-0.3-0.8-0.8v-3C0,9.3,0.3,9,0.7,9h21c0.4,0,0.8,0.3,0.8,0.8v3
	C22.5,13.2,22.1,13.5,21.7,13.5z M0.7,9.5c-0.1,0-0.3,0.1-0.3,0.3v3c0,0.1,0.1,0.3,0.3,0.3h21c0.1,0,0.3-0.1,0.3-0.3v-3
	c0-0.1-0.1-0.3-0.3-0.3H0.7z"/>
<path class="st0" d="M21,0.8V5h0.5V0.8c0-0.4-0.3-0.8-0.8-0.8h-19C1.3,0,1,0.3,1,0.8V5h0.5V0.8c0-0.1,0.1-0.3,0.3-0.3h19
	C20.9,0.5,21,0.6,21,0.8z"/>
<path class="st0" d="M3.7,9.5h-3C0.3,9.5,0,9.2,0,8.8v-3C0,5.3,0.3,5,0.7,5h3c0.4,0,0.7,0.3,0.7,0.7v3C4.5,9.2,4.2,9.5,3.7,9.5
	C3.7,9.5,3.7,9.5,3.7,9.5z M0.7,5.5c-0.1,0-0.2,0.1-0.2,0.2v3C0.5,8.9,0.6,9,0.7,9h3C3.9,9,4,8.9,4,8.7v-3c0-0.1-0.1-0.2-0.2-0.2
	L0.7,5.5z"/>
<path class="st0" d="M21.7,9.5h-3c-0.4,0-0.8-0.3-0.8-0.8l0,0v-3c0-0.4,0.3-0.8,0.8-0.8l0,0h3c0.4,0,0.8,0.3,0.8,0.8l0,0v3
	C22.5,9.2,22.1,9.5,21.7,9.5z M18.7,5.5c-0.1,0-0.3,0.1-0.3,0.3l0,0v3c0,0.1,0.1,0.3,0.3,0.3l0,0h3C21.9,9,22,8.9,22,8.8l0,0v-3
	c0-0.1-0.1-0.3-0.3-0.3l0,0L18.7,5.5z"/>
</svg>
