<?xml version="1.0" encoding="utf-8"?>
<!-- Generator: Adobe Illustrator 21.1.0, SVG Export Plug-In . SVG Version: 6.00 Build 0)  -->
<svg version="1.1" id="Layer_1" xmlns="http://www.w3.org/2000/svg" xmlns:xlink="http://www.w3.org/1999/xlink" x="0px" y="0px"
	 viewBox="0 0 16.7 19.8" style="enable-background:new 0 0 16.7 19.8;" xml:space="preserve">
<style type="text/css">
	.st0{fill:#C6C2B7;}
</style>
<title>Bathrope + Slippers Line@3x</title>
<path class="st0" d="M13.6,19.8H3.1v-11H0l2.5-7.4c0.4-0.7,1.2-1.1,2-1.1h0.8l3,2.9l3-2.9h0.9c0.8,0,1.5,0.4,1.9,1.1v0l2.5,7.4h-3.1
	L13.6,19.8z M3.6,19.3h9.5v-11H16l-2.3-6.7c-0.3-0.5-0.9-0.8-1.5-0.8h-0.6L8.4,3.9L5.1,0.8H4.5C3.9,0.8,3.3,1.1,3,1.7L0.7,8.3h2.9
	L3.6,19.3z"/>
<path class="st0" d="M8.5,19.8H3.1v-11H0l2.5-7.4c0.4-0.7,1.2-1.1,2-1.1h0.8l3.2,3.1l5.1,8.1L8.5,19.8z M3.6,19.3h4.6l4.8-7.8
	L8.2,3.7l-3-2.9H4.5C3.9,0.8,3.3,1.1,3,1.7L0.7,8.3h2.9L3.6,19.3z"/>
<rect x="3.1" y="6.6" class="st0" width="0.5" height="2"/>
<rect x="13.1" y="6.6" class="st0" width="0.5" height="2"/>
<rect x="3.4" y="11.3" class="st0" width="10" height="0.5"/>
</svg>
