<?xml version="1.0" encoding="UTF-8"?>
<svg width="22px" height="19px" viewBox="0 0 22 19" version="1.1" xmlns="http://www.w3.org/2000/svg" xmlns:xlink="http://www.w3.org/1999/xlink">
    <!-- Generator: Sketch 47.1 (45422) - http://www.bohemiancoding.com/sketch -->
    <title>Page 1 Copy</title>
    <desc>Created with Sketch.</desc>
    <defs></defs>
    <g id="Page-1" stroke="none" stroke-width="1" fill="none" fill-rule="evenodd">
        <g id="Landingpage-1920---dropdown-+-location-(grid)-on-hoover-over" transform="translate(-1805.000000, -387.000000)" fill="#717073">
            <g id="booking" transform="translate(1495.000000, 212.000000)">
                <g id="Page-1-Copy" transform="translate(310.000000, 175.000000)">
                    <path d="M1,17.999 L20.527,17.999 L20.527,2.667 L1,2.667 L1,17.999 Z M21.027,18.999 L0.5,18.999 C0.224,18.999 0,18.775 0,18.499 L0,2.167 C0,1.891 0.224,1.667 0.5,1.667 L21.027,1.667 C21.304,1.667 21.527,1.891 21.527,2.167 L21.527,18.499 C21.527,18.775 21.304,18.999 21.027,18.999 L21.027,18.999 Z" id="Fill-1"></path>
                    <path d="M17.1934,4.333 C16.9174,4.333 16.6934,4.109 16.6934,3.833 L16.6934,0.5 C16.6934,0.224 16.9174,-3.55271368e-15 17.1934,-3.55271368e-15 C17.4694,-3.55271368e-15 17.6934,0.224 17.6934,0.5 L17.6934,3.833 C17.6934,4.109 17.4694,4.333 17.1934,4.333" id="Fill-3"></path>
                    <path d="M4.4433,4.333 C4.1673,4.333 3.9433,4.109 3.9433,3.833 L3.9433,0.5 C3.9433,0.224 4.1673,-3.55271368e-15 4.4433,-3.55271368e-15 C4.7193,-3.55271368e-15 4.9433,0.224 4.9433,0.5 L4.9433,3.833 C4.9433,4.109 4.7193,4.333 4.4433,4.333" id="Fill-4"></path>
                    <path d="M20.9727,8.0693 L0.6387,8.0693 C0.3627,8.0693 0.1387,7.8453 0.1387,7.5693 C0.1387,7.2933 0.3627,7.0693 0.6387,7.0693 L20.9727,7.0693 C21.2487,7.0693 21.4727,7.2933 21.4727,7.5693 C21.4727,7.8453 21.2487,8.0693 20.9727,8.0693" id="Fill-5"></path>
                    <polygon id="Fill-6" points="3.237 12.039 5.178 12.039 5.178 10.1 3.237 10.1"></polygon>
                    <polygon id="Fill-7" points="6.596 12.039 8.535 12.039 8.535 10.1 6.596 10.1"></polygon>
                    <polygon id="Fill-8" points="9.954 12.039 11.893 12.039 11.893 10.1 9.954 10.1"></polygon>
                    <polygon id="Fill-9" points="13.311 12.039 15.25 12.039 15.25 10.1 13.311 10.1"></polygon>
                    <polygon id="Fill-10" points="16.668 12.039 18.607 12.039 18.607 10.1 16.668 10.1"></polygon>
                    <polygon id="Fill-11" points="3.237 15.155 5.178 15.155 5.178 13.216 3.237 13.216"></polygon>
                    <polygon id="Fill-12" points="6.596 15.155 8.535 15.155 8.535 13.216 6.596 13.216"></polygon>
                    <polygon id="Fill-13" points="9.954 15.155 11.893 15.155 11.893 13.216 9.954 13.216"></polygon>
                    <polygon id="Fill-14" points="13.311 15.155 15.25 15.155 15.25 13.216 13.311 13.216"></polygon>
                    <polygon id="Fill-15" points="16.668 15.155 18.607 15.155 18.607 13.216 16.668 13.216"></polygon>
                </g>
            </g>
        </g>
    </g>
</svg>