<?xml version="1.0" encoding="UTF-8"?>
<svg width="343px" height="100px" viewBox="0 0 343 100" version="1.1" xmlns="http://www.w3.org/2000/svg" xmlns:xlink="http://www.w3.org/1999/xlink">
    <!-- Generator: Sketch 46.2 (44496) - http://www.bohemiancoding.com/sketch -->
    <title>logo</title>
    <desc>Created with Sketch.</desc>
    <defs>
        <polygon id="path-1" points="171.170532 99.1351608 0 99.1351608 0 0.000381953581 171.170532 0.000381953581 342.341063 0.000381953581 342.341063 99.1351608"></polygon>
    </defs>
    <g id="Page-1" stroke="none" stroke-width="1" fill="none" fill-rule="evenodd">
        <g id="Landingpage-1920-Copy" transform="translate(-788.000000, -24.000000)">
            <g id="logo" transform="translate(788.000000, 24.000000)">
                <mask id="mask-2" fill="white">
                    <use xlink:href="#path-1"></use>
                </mask>
                <g id="Clip-2"></g>
                <path d="M317.964561,99.1351608 L317.964561,88.4480996 C317.964561,87.915911 318.004997,87.5377769 318.084605,87.3200634 C318.159159,87.1163548 318.34112,86.9368366 318.626698,86.7866016 C318.921122,86.6300006 319.334326,86.5294195 319.856201,86.4874046 L319.949709,86.4797655 L319.949709,85.8457226 L315.137842,85.8457226 L315.137842,86.4874046 L315.241459,86.4874046 C315.726689,86.4874046 316.144948,86.5510635 316.487389,86.6796546 C316.814667,86.8006065 317.037064,86.9648466 317.139417,87.167282 C317.246825,87.3773564 317.298633,87.7605832 317.298633,88.30805 L317.298633,95.6479247 L309.935517,85.8457226 L306.038511,85.8457226 L306.038511,86.4874046 L306.142128,86.4874046 C306.966009,86.4874046 307.289496,86.5574294 307.412067,86.618542 C307.580128,86.6974791 307.705227,86.8922754 307.787362,87.1927455 C307.877079,87.5161329 307.922569,88.1705467 307.922569,89.1368893 L307.922569,95.9191117 C307.922569,96.6779261 307.893506,97.1642804 307.836643,97.3603499 C307.782308,97.5424144 307.609192,97.7155667 307.318559,97.8810799 C307.012763,98.0516859 306.56165,98.1586329 305.974067,98.2019209 L305.878032,98.20956 L305.878032,98.8436029 L310.821315,98.8436029 L310.821315,98.2019209 L310.720225,98.2019209 C310.066933,98.2019209 309.572858,98.1089789 309.251898,97.9230948 C308.942311,97.7435766 308.750241,97.5475071 308.688323,97.3425254 C308.618824,97.1209923 308.584707,96.6435503 308.584707,95.9191117 L308.584707,87.3518929 L317.409832,99.1351608 L317.964561,99.1351608 Z M295.851203,87.8382471 C296.649811,88.8733413 297.056697,90.3909702 297.056697,92.3440262 C297.056697,94.353102 296.644757,95.8834627 295.83604,96.890547 C295.02985,97.8912654 293.914073,98.3992636 292.525354,98.3992636 C290.938247,98.3992636 289.731489,97.8925385 288.941727,96.8918201 C288.145646,95.8847359 287.743814,94.3480093 287.743814,92.3249285 C287.743814,90.3336772 288.145646,88.8122287 288.941727,87.8013249 C289.731489,86.7980602 290.887702,86.2887887 292.376247,86.2887887 C293.890064,86.2887887 295.058913,86.8095188 295.851203,87.8382471 L295.851203,87.8382471 Z M297.478746,97.211388 C298.763848,95.9700388 299.415877,94.3276384 299.415877,92.3249285 C299.415877,90.2598328 298.734785,88.6059738 297.390293,87.4091859 C296.050855,86.2149444 294.360131,85.6101845 292.367402,85.6101845 C290.389836,85.6101845 288.715539,86.2213103 287.392528,87.4282836 C286.065727,88.6390764 285.392217,90.2636523 285.392217,92.2599964 C285.392217,94.3047212 286.054354,95.9700388 287.363465,97.211388 C288.666257,98.4501908 290.360772,99.0804142 292.395201,99.0804142 C294.482702,99.0804142 296.196172,98.4501908 297.478746,97.211388 L297.478746,97.211388 Z M269.289901,86.4148334 C269.741014,86.3880967 270.190863,86.3740917 270.629339,86.3740917 C271.601063,86.3740917 272.407253,86.4695801 273.025163,86.6567373 C273.634229,86.8426214 274.200331,87.1991114 274.703251,87.7160219 C275.207436,88.2329325 275.600422,88.9166294 275.8721,89.7454686 C276.145042,90.5806738 276.284041,91.5419236 276.284041,92.6088473 C276.284041,93.9736948 276.04648,95.1106433 275.580204,95.9878633 C275.116455,96.8599907 274.531399,97.4494724 273.84778,97.7435766 C273.152789,98.0427736 272.248037,98.1930087 271.162587,98.1930087 C270.429687,98.1930087 269.949511,98.124257 269.733432,97.9880269 C269.524935,97.8543432 269.402364,97.6289906 269.359401,97.2928714 C269.31391,96.933835 269.289901,96.1164544 269.289901,94.8623735 L269.289901,86.4148334 Z M270.844155,98.8436029 C271.898014,98.8436029 272.728213,98.8092271 273.308214,98.7430218 C273.895798,98.6768166 274.523817,98.5062106 275.175845,98.2362968 C275.832928,97.9638365 276.417984,97.5640585 276.914587,97.0420552 C277.41119,96.5213252 277.809231,95.8605455 278.093545,95.0737211 C278.375332,94.2894431 278.520649,93.412223 278.520649,92.4675245 C278.520649,91.1625164 278.259079,89.9911921 277.738468,88.9904737 C277.214065,87.987209 276.410403,87.1800137 275.34138,86.5943516 C274.274884,86.0099626 272.77623,85.7145852 270.882063,85.7145852 C270.279316,85.7145852 269.092777,85.7578732 267.357826,85.8457226 L265.173026,85.9526696 L265.173026,86.5892589 L265.649411,86.5892589 C266.42401,86.5892589 266.727279,86.6720155 266.848587,86.7420403 C267.01033,86.8349823 267.120265,87.0183201 267.174601,87.2844144 C267.2302,87.5785187 267.259263,88.2354788 267.259263,89.2412899 L267.259263,95.4098403 C267.259263,96.4640321 267.2302,97.1451827 267.174601,97.4303747 C267.117738,97.6977422 267.002748,97.888719 266.813205,98.0109441 C266.623662,98.1395352 266.26353,98.2019209 265.742919,98.2019209 L265.117427,98.2019209 L265.117427,98.8436029 L270.844155,98.8436029 Z M257.131345,99.1351608 L257.131345,88.4480996 C257.131345,87.9171842 257.170518,87.5377769 257.251389,87.3200634 C257.325943,87.1163548 257.507904,86.9368366 257.793483,86.7866016 C258.087906,86.6300006 258.498583,86.5294195 259.020458,86.4874046 L259.116493,86.4797655 L259.116493,85.8457226 L254.304627,85.8457226 L254.304627,86.4874046 L254.405716,86.4874046 C254.89221,86.4874046 255.311732,86.5510635 255.65291,86.6796546 C255.982714,86.8006065 256.201321,86.9648466 256.306201,87.167282 C256.413609,87.3760833 256.466681,87.75931 256.466681,88.30805 L256.466681,95.6479247 L249.103565,85.8457226 L245.205296,85.8457226 L245.205296,86.4874046 L245.306385,86.4874046 C246.132793,86.4874046 246.455016,86.5574294 246.577587,86.618542 C246.746913,86.6974791 246.872011,86.8922754 246.95541,87.1927455 C247.0426,87.5161329 247.086827,88.1705467 247.086827,89.1368893 L247.086827,95.9191117 C247.086827,96.6779261 247.059027,97.1642804 247.0009,97.3628962 C246.949092,97.5411412 246.775976,97.7155667 246.485343,97.8810799 C246.179547,98.0516859 245.728435,98.1586329 245.140851,98.2019209 L245.044816,98.20956 L245.044816,98.8436029 L249.988099,98.8436029 L249.988099,98.2019209 L249.885746,98.2019209 C249.23119,98.2019209 248.739642,98.1089789 248.418682,97.9230948 C248.106568,97.7435766 247.917025,97.5475071 247.856371,97.3425254 C247.785609,97.1209923 247.751491,96.6435503 247.751491,95.9191117 L247.751491,87.3518929 L256.574089,99.1351608 L257.131345,99.1351608 Z M235.017988,87.8382471 C235.816596,88.8733413 236.223481,90.389697 236.223481,92.3440262 C236.223481,94.353102 235.811541,95.8834627 235.001561,96.890547 C234.195371,97.8912654 233.082121,98.3992636 231.692139,98.3992636 C230.102504,98.3992636 228.89701,97.8925385 228.105984,96.8918201 C227.309903,95.8847359 226.906808,94.3480093 226.906808,92.3249285 C226.906808,90.3336772 227.31243,88.8122287 228.105984,87.8013249 C228.89701,86.7980602 230.054486,86.2887887 231.541768,86.2887887 C233.056849,86.2887887 234.224434,86.8095188 235.017988,87.8382471 L235.017988,87.8382471 Z M236.645531,97.211388 C237.930633,95.9700388 238.582661,94.3276384 238.582661,92.3249285 C238.582661,90.2598328 237.901569,88.6059738 236.557077,87.4091859 C235.218903,86.2149444 233.526915,85.6101845 231.534186,85.6101845 C229.55662,85.6101845 227.882323,86.2213103 226.559312,87.4282836 C225.231247,88.6390764 224.559001,90.2636523 224.559001,92.2599964 C224.559001,94.3047212 225.221138,95.9700388 226.530249,97.211388 C227.834305,98.4501908 229.527557,99.0804142 231.561986,99.0804142 C233.65075,99.0804142 235.362956,98.4501908 236.645531,97.211388 L236.645531,97.211388 Z M218.184036,98.8436029 L219.004126,94.8725589 L218.381161,94.8725589 L218.358416,94.9476764 C218.082946,95.9433021 217.107431,98.2019209 214.331257,98.2019209 L213.367115,98.2019209 C212.659487,98.2019209 212.197002,98.1420815 211.991032,98.0224027 C211.793907,97.9078167 211.678918,97.7537621 211.633428,97.5475071 C211.58541,97.3259741 211.560138,96.7492241 211.560138,95.8338087 L211.560138,89.1368893 C211.560138,88.0852437 211.592992,87.4142786 211.657436,87.1418184 C211.715563,86.8871827 211.825498,86.7203963 211.994823,86.6300006 C212.113603,86.5650685 212.418136,86.4874046 213.172517,86.4874046 L213.837182,86.4874046 L213.837182,85.8457226 L207.534243,85.8457226 L207.534243,86.4874046 L207.919647,86.4874046 C208.694246,86.4874046 209.000043,86.5714344 209.116296,86.6414592 C209.279303,86.739494 209.389238,86.9215585 209.443573,87.1851065 C209.5017,87.4766644 209.530763,88.1323513 209.530763,89.1368893 L209.530763,95.4098403 C209.530763,96.4640321 209.5017,97.1451827 209.443573,97.4303747 C209.389238,97.6977422 209.271721,97.888719 209.083441,98.0109441 C208.895162,98.1395352 208.533767,98.2019209 208.013155,98.2019209 L207.534243,98.2019209 L207.534243,98.8436029 L218.184036,98.8436029 Z M219.963214,50.32022 C221.627402,48.4461011 223.743966,46.0614375 226.252253,44.1071084 C228.592478,42.2826434 231.473532,40.248104 235.198685,40.4518126 C240.625935,40.7497364 236.981654,46.6089043 235.802696,49.3462383 C233.851666,53.8965787 232.116715,58.0420482 230.364073,62.6254912 C229.543984,64.7695239 227.879796,67.2356709 228.91091,69.5719536 C230.503072,70.0863178 231.44826,68.9837451 232.661335,68.718924 C233.507961,70.4873691 231.234708,71.4829947 229.517448,72.4964449 C227.743325,73.5404514 225.84663,74.8301813 223.591068,74.6901316 C219.819161,74.4533204 222.4993,68.433732 223.35098,66.1611082 C225.763231,59.7048195 228.023848,54.9622292 230.364073,48.2500315 C230.730523,47.1945665 231.496277,44.9945139 230.241502,44.5947358 C229.08529,44.2242408 227.426156,45.6845767 226.493604,46.4230202 C220.876811,50.876599 217.739242,55.7121313 214.884723,62.7489895 C213.503586,66.1534691 212.103494,68.8131392 211.740835,72.739622 C208.955816,73.2259762 206.576418,74.1172013 204.243775,75.0542607 C207.679559,66.3609972 211.230333,57.7161145 214.644635,48.8586109 C215.110911,47.6414522 215.817275,46.0423398 215.006031,44.7156877 C211.999877,44.4801497 210.048847,47.1500052 208.233025,48.9795629 C203.014272,54.2377905 198.122798,62.3237478 196.020133,70.5459353 C195.843226,71.2410908 195.73961,72.0113638 195.777518,72.739622 C192.988708,73.217064 190.615629,74.1172013 188.280458,75.0542607 C191.138767,67.514497 195.058518,58.8008626 197.710857,50.199268 C198.058353,49.0814172 198.605501,47.1423662 198.07478,46.17857 C197.417697,44.9817821 195.326406,45.2797059 193.965486,45.8131677 C193.842915,45.2402373 194.411544,44.3159097 194.689541,43.7417061 C198.634564,43.0872923 201.966731,41.8141137 205.090401,40.3295874 C205.871318,44.795898 204.114886,48.6447169 203.033227,52.0275525 C206.466484,48.4753842 211.551292,40.7701072 218.752665,40.4518126 C220.14012,40.3907 221.982479,40.7370046 222.380519,41.7924697 C223.156382,43.8371945 220.473716,48.5110332 219.963214,50.32022 L219.963214,50.32022 Z M254.911164,43.498529 C247.90818,46.855901 242.067726,52.3433008 238.343837,59.2159189 C236.514114,62.5898422 234.486003,67.3948182 234.959861,72.0075443 C235.141822,73.7836285 236.070583,75.833446 237.378431,76.2726926 C239.330724,76.930926 242.163761,75.4718633 243.666206,74.5679065 C248.646134,71.5670245 252.394032,67.1350898 255.637746,63.2366169 C255.637746,63.3588421 255.539184,63.3804861 255.515175,63.479794 C254.941491,65.3590056 253.439047,68.362434 253.216649,70.9113375 C253.110505,72.1654185 253.057433,73.4780656 253.579308,74.0790059 C255.088071,75.8168947 258.723507,73.6652229 260.23227,72.860574 C261.892667,71.9757148 263.417857,71.0373822 264.465399,70.059581 C264.208884,69.7489255 264.261956,69.1263411 264.102739,68.718924 C262.983172,68.7494803 262.106219,70.2722019 260.716237,69.8176771 C258.877669,69.2116441 260.788263,65.0801795 261.200203,63.9674214 C262.760775,59.730283 264.069885,56.5256925 265.67342,52.8805821 C266.475819,51.0535708 267.451334,49.1132466 267.849374,47.5179538 C266.072724,48.5708726 263.75398,49.0775976 261.080159,49.2240132 C259.533488,53.7501631 257.270344,57.884174 254.427198,61.7737347 C251.846885,65.304259 248.373192,69.4229917 244.270217,70.9113375 C241.459925,71.9324268 240.121751,70.3676903 240.402274,67.1350898 C240.695434,63.7115125 242.417749,59.972187 243.907557,57.1444573 C245.355666,54.3892988 247.521512,51.5730277 249.832674,49.5894154 C254.451206,45.6272836 262.72792,41.6218637 269.904021,44.8379129 C270.641975,45.1676661 271.334439,45.8055286 272.325118,46.3007951 C271.932132,44.7857126 271.587163,43.2260688 271.478492,41.4270674 C265.91098,39.8928872 259.263073,41.4105161 254.911164,43.498529 L254.911164,43.498529 Z M95.0480139,50.4437183 C90.2108748,55.3148996 85.4179625,61.8934135 84.8872419,69.8176771 C84.693908,72.7599929 85.4546075,75.6615669 87.3096023,76.2726926 C89.2934864,76.9283796 92.0507062,75.4616779 93.5948504,74.5679065 C98.6202689,71.6612397 102.240542,67.015411 105.567654,63.2366169 C105.567654,63.3588421 105.469092,63.3804861 105.446347,63.479794 C104.91689,64.9936034 104.264861,66.33808 103.631788,68.5966988 C102.948169,71.0373822 102.336577,74.5309843 105.082424,74.6901316 C107.61851,74.835274 111.267846,72.3054681 113.065978,71.1557878 C113.990948,70.565033 114.645503,69.9717317 114.033911,68.718924 C112.897916,68.7061922 112.020964,70.2620164 110.646145,69.8176771 C108.940257,69.2612981 110.557691,65.0661746 111.008804,63.8464695 C111.770767,61.7941055 112.503667,59.9136207 113.186022,58.2406641 C114.679621,54.5751829 116.667296,50.8422232 117.781809,47.5179538 C115.978623,48.5441358 113.687679,49.0814172 111.008804,49.2240132 C109.477296,53.4598784 107.336723,57.7759539 104.478413,61.6527827 C101.850083,65.218956 98.4547347,69.1034239 94.5640473,70.7903856 C91.5616851,72.0915741 90.0175409,70.6376041 90.3296552,67.0141378 C90.5924882,63.9967045 91.9913161,60.7882944 93.2321913,58.2406641 C94.4389489,55.7681512 96.0285834,53.2727211 97.9492865,51.2954748 C103.226165,45.8640948 114.23609,40.4479931 122.257553,46.3007951 C121.845613,44.8048102 121.491799,43.2502592 121.409664,41.4270674 C110.030762,39.335235 101.168991,44.2738948 95.0480139,50.4437183 L95.0480139,50.4437183 Z M285.505943,40.3295874 C282.546544,41.937612 279.118341,43.0745605 275.22639,43.7417061 C275.084865,44.4139444 274.393664,45.174032 274.62238,45.8131677 C277.043477,44.9155768 279.175204,45.0836364 278.854245,48.2500315 C278.64322,50.3354981 277.393499,52.7468984 276.556983,55.0729957 C274.147258,61.7839201 271.30664,69.1900001 268.939879,75.0542607 C271.209341,74.0930109 273.608956,73.2641716 276.316895,72.739622 C276.540556,69.5668609 277.950756,66.7187604 279.09686,63.8464695 C281.344841,58.2037419 283.359052,52.7354398 287.56059,48.8586109 C290.05624,46.5579772 295.177694,43.5188998 298.56546,46.4230202 C299.113871,44.4152176 299.937752,42.6887874 300.500063,40.6949897 C292.706052,39.7311935 288.421115,44.9970602 284.779361,48.6154338 C285.373263,46.3135269 286.617929,42.8224712 285.505943,40.3295874 L285.505943,40.3295874 Z M135.79851,40.4518126 C132.892183,41.6256833 129.333828,43.1955125 125.39765,43.7417061 C125.243488,44.3986663 124.604096,45.2109542 124.794903,45.8131677 C126.037042,45.2962572 128.12707,44.9677771 128.78668,46.057618 C129.362891,47.0137751 128.872606,49.1425297 128.542801,50.199268 C125.871508,58.7563014 121.897421,67.457204 119.112402,75.0542607 C121.374282,74.0853718 123.795379,73.274357 126.488154,72.739622 C127.634258,66.1878449 130.439495,60.5374783 133.745127,55.8038002 C136.167487,52.330569 139.030851,48.8051374 142.451471,46.3007951 C143.619057,45.4439459 145.034312,44.3082706 146.683336,44.7156877 C147.529962,47.3791774 145.87841,49.8911588 144.990085,52.1497776 C143.093391,56.9687586 141.119616,61.4452546 139.30632,66.2820601 C138.44074,68.5903329 137.158165,71.4906338 138.215816,74.2025042 C140.593949,75.3101696 142.728204,74.0038884 144.990085,72.739622 C146.204424,72.0584715 148.911099,70.750917 148.980598,69.9373559 C149.021034,69.4599139 148.671011,69.0563163 148.737983,68.718924 C147.575452,69.0333991 146.554447,70.0583079 144.990085,69.5719536 C144.00067,68.4388247 144.823287,67.1707388 145.2327,66.038883 C147.455408,59.8894304 149.507528,54.8170868 152.001915,48.9795629 C153.305971,45.9353928 156.587593,40.6644334 151.157816,40.4518126 C147.027041,40.2901189 143.715092,42.8250175 140.998308,44.9588649 C138.037645,47.2862353 135.680993,49.9739154 133.745127,52.2694564 C134.80025,48.8764354 136.787925,44.7131414 135.79851,40.4518126 L135.79851,40.4518126 Z M303.763995,54.7063203 C305.985439,50.9046089 309.51094,47.1169026 313.682151,44.5947358 C315.562419,43.4577873 320.556247,41.1469681 320.939124,44.9588649 C321.263874,48.2194753 317.216498,51.1350543 314.888909,52.3916815 C311.485979,54.2326978 308.112113,54.7814378 303.763995,54.7063203 L303.763995,54.7063203 Z M341.737053,74.5679065 C339.492863,75.7876116 337.747803,77.2912355 334.117421,76.881272 C328.78747,76.2816049 324.167674,70.5930429 321.177948,67.2560418 C317.358023,62.994713 314.231826,58.7664868 309.812946,56.1704756 C315.842942,55.1926745 320.594155,52.9493338 324.203055,49.1030612 C325.31125,47.9215515 326.713869,46.1963945 326.984284,44.7156877 C327.614831,41.2437297 325.095171,39.713369 322.145881,39.7210081 C314.811828,39.7362862 309.498304,45.8271727 305.45851,48.737659 C309.609503,36.7557751 314.282371,25.299714 317.912753,12.7945538 C314.245726,14.4598714 310.256476,15.8018016 305.821169,16.6917535 C305.704916,17.4276507 305.292975,17.8668973 305.218422,18.6422631 C306.615986,18.2857731 308.675687,17.864351 309.327715,19.0076653 C310.342403,20.7824763 308.520262,24.6529393 307.877079,26.561434 C302.43972,42.6493189 295.980093,59.6882681 290.343082,75.0542607 C292.635289,74.0344447 295.252247,73.3431087 297.838878,72.61867 C298.662759,67.0688845 300.833659,61.825935 302.677281,56.9012802 C306.158555,57.4220102 308.108322,60.2866621 310.173077,62.6254912 C314.235617,67.2242123 317.7965,72.4175078 322.872463,76.396191 C325.354214,78.3403347 328.626991,80.1991755 332.302862,80.1711655 C336.908759,80.1393361 339.538353,77.7775898 342.341063,75.6641133 L342.341063,75.2974378 C342.041585,75.1535686 341.868469,74.8811084 341.737053,74.5679065 L341.737053,74.5679065 Z M180.783398,44.1071084 C180.885751,44.0854643 180.89586,44.154216 180.904705,44.2293335 C178.057769,53.4165903 174.077364,61.2580974 167.601309,67.2560418 C166.682657,68.1077982 165.65407,69.0524968 164.217334,69.9373559 C163.107875,70.6210528 161.201072,71.7567281 159.742854,71.1557878 C157.010906,70.0328443 159.14137,63.5128967 159.985469,61.4083324 C163.589314,52.4031402 170.163932,45.5012389 180.783398,44.1071084 L180.783398,44.1071084 Z M163.006785,50.5659434 C158.676358,54.7585206 153.591549,61.9303357 153.092419,69.4497285 C152.892767,72.4391519 153.444969,75.3432723 155.147066,76.1504675 C157.148641,77.1002587 160.10804,75.5036928 161.676193,74.5679065 C166.619476,71.6179517 170.31683,67.3095153 173.527689,63.479794 C173.527689,63.6020192 173.429127,63.6236632 173.407645,63.7229711 C172.878188,66.1114542 169.509376,70.8158491 171.230427,73.7136036 C172.590083,76.0015056 176.92051,73.6130225 178.486136,72.739622 C180.080825,71.848397 181.563052,70.8947862 182.59922,69.9373559 C182.399568,69.5261192 182.336387,68.9811988 182.234034,68.4757469 C180.943878,68.7813097 180.018907,69.8877019 178.486136,69.5719536 C177.43354,67.4381063 178.743914,64.933764 179.454069,62.9908934 C181.782922,56.6262736 184.063757,50.2769319 186.467163,44.2293335 C188.897105,44.6240189 190.687655,45.6603863 192.392279,46.7871493 C191.891885,45.3828333 191.61768,43.7518915 191.545653,41.9146948 C190.383122,41.4219747 188.855405,41.2933836 187.556403,40.9381668 C190.817808,31.5955822 194.382481,22.5560141 197.230682,12.7945538 C193.566182,14.4624177 189.575669,15.804348 185.13657,16.6917535 C185.019054,17.4276507 184.609641,17.8668973 184.53256,18.6422631 C185.840407,18.3405198 187.954444,17.7981457 188.643117,19.0076653 C189.456889,20.4285327 188.355012,23.2728137 187.796491,24.8566479 C185.889688,30.2714765 183.750379,36.3356262 181.991419,40.9381668 C174.153181,42.0509249 168.204056,45.5343416 163.006785,50.5659434 L163.006785,50.5659434 Z M170.14245,12.4291515 C169.429768,16.0959059 166.361698,17.3945481 163.489488,18.8854402 C164.212279,17.137366 167.313204,10.7587412 170.14245,12.4291515 L170.14245,12.4291515 Z M169.414605,17.6682815 C170.821014,16.7821491 174.050828,14.7170534 173.647733,12.1847012 C173.391218,10.5512131 171.359317,10.0941419 169.295824,10.3564167 C164.018945,11.0299282 158.574005,17.0647948 158.050866,22.5420092 C157.789297,25.2411478 158.553787,27.288419 159.861634,28.2687665 C163.553933,31.0226518 168.921793,28.5552317 171.59435,26.4392089 C173.714705,24.7611595 178.080514,20.0580377 173.527689,18.399086 C173.592134,18.9592846 173.697014,19.6773573 173.527689,20.4692744 C172.835225,23.7286116 167.75168,28.4202748 164.337378,27.7798659 C161.774755,27.2986044 161.508132,23.1811448 162.646654,20.5927727 C165.085441,19.8186801 167.22096,19.054773 169.414605,17.6682815 L169.414605,17.6682815 Z M64.9372022,33.3843982 C64.7918859,32.7554479 65.5209949,31.8514911 66.0239158,31.0697595 C71.423366,22.6718734 77.3219462,14.4967935 85.7351312,8.77385572 C88.6743124,6.77369213 92.4158925,4.61692758 96.3773426,4.2642571 C101.00093,3.85556677 104.938371,6.3828263 103.755622,11.5761218 C102.116707,18.7313856 94.6790368,23.8584758 88.638931,26.8046111 C81.3427865,30.3644185 73.4994944,32.4307874 64.9372022,33.3843982 L64.9372022,33.3843982 Z M17.8976673,90.6494254 C20.4615532,91.3929618 22.9647853,91.6794269 26.4814411,91.6259534 C27.7437979,91.6068558 28.9404464,91.7570908 28.9012742,90.8938757 C28.8482022,89.8065812 25.7915043,90.3629603 24.5455745,90.2852964 C15.1075934,89.6932683 9.16099554,83.8531981 6.16621507,76.881272 C4.44516402,72.8745789 3.73121847,68.2338429 4.35039249,63.2366169 C6.07776164,49.3118625 16.2372701,43.3508403 28.5386151,39.9641852 C36.9290549,37.6546392 45.7326986,36.5647983 56.1095497,35.9434872 C51.8536761,43.9237706 47.5788481,52.2134365 42.5635385,59.5813211 C38.7625682,65.169302 34.7417279,70.251831 28.2947364,73.2259762 C27.4241019,73.6295739 26.0391739,74.1452112 25.0308048,74.5679065 C24.2094515,74.9116647 22.3443477,75.1395637 23.3362898,76.7615932 C24.0653988,76.9716677 24.8614796,76.4343863 25.5135078,76.1504675 C30.8080775,73.8600192 38.9647475,74.1401185 45.3447671,75.5418881 C52.3982965,77.0926197 59.0449401,79.6440696 64.9372022,81.99945 C71.2009688,84.5050655 77.2650833,87.1189012 83.5604404,89.5544918 C89.8178889,91.9748044 96.4910685,94.6943139 104.478413,94.4269464 C107.003127,90.7092648 110.74218,87.7045633 113.790032,84.3140887 C113.784978,84.3204546 114.605068,83.9894282 114.033911,83.8277345 C112.494821,83.4063124 112.205452,83.7780805 111.371463,84.558539 C106.51537,89.0974207 97.2037504,87.0807058 90.8136218,85.0474396 C79.4372469,81.4201537 70.3518158,76.453484 58.8907784,72.739622 C52.5347675,70.679619 44.9606265,68.6616309 37.365004,69.9373559 C49.0080028,61.362498 55.5320752,47.626174 63.4853023,35.336181 C79.590145,33.3869445 93.8589471,29.7227365 103.269129,20.5927727 C105.945477,17.9942152 110.02318,13.765989 109.074201,8.16400317 C108.729233,6.1269174 106.659422,4.1394856 104.719765,3.29027547 C99.6564377,1.07367152 92.4601192,3.29027547 88.1549644,5.11728677 C74.2248125,11.0312014 63.9364148,22.20589 56.9536482,34.1152027 C43.4859815,34.8498267 30.3380107,36.6857503 19.9510506,40.8172148 C9.73720647,44.8824741 1.46049252,51.6659697 -0.00025272409,64.5747276 L-0.00025272409,70.3027582 C1.61844507,81.1413276 8.1020816,87.8127835 17.8976673,90.6494254 L17.8976673,90.6494254 Z M151.399168,0.000381953581 L151.641783,0.000381953581 C149.511319,5.61637278 147.535017,11.3787791 145.472788,17.0597021 C147.516062,14.6584872 150.628359,10.8020292 154.905715,10.3564167 C155.978528,10.2469234 157.252258,10.3042164 157.928295,10.9662693 C158.067293,13.8436529 156.472604,16.2003065 155.509725,18.6422631 C155.024495,19.8759732 154.51652,21.1758885 154.059089,22.419784 C153.633249,23.5834693 152.780305,25.0221611 153.456342,26.3195301 C154.641618,26.5232387 155.17992,25.4805054 155.873648,25.5861792 C155.967156,25.8993811 155.993692,26.2775152 156.237571,26.4392089 C154.286541,27.6372699 151.903352,30.0957778 148.980598,29.120523 C148.598985,26.0941775 149.937159,23.4981663 150.915201,20.9569018 C151.857862,18.5085793 153.495514,15.8552751 153.213727,13.0377309 C149.884087,13.5508218 147.738459,16.3263512 145.956755,18.7632151 C144.089124,21.3210309 142.702932,24.5663631 142.207593,28.2687665 C140.362707,28.5590512 138.823617,29.1625379 137.249146,29.7291024 C140.279308,21.9372493 143.20838,14.0448151 145.592832,5.60491417 C143.357487,6.72021863 139.77386,7.53887247 135.919817,7.43319865 C133.529047,14.1619476 130.853963,20.6029581 129.390691,28.2687665 C127.559704,28.5768757 125.962488,29.1167035 124.43098,29.7291024 C127.252645,22.3383006 130.209517,15.0811825 132.653359,7.31224668 C130.305552,7.23458279 128.192778,6.70112095 126.004188,6.70112095 C122.30178,6.70112095 119.880683,8.87952954 117.781809,10.2341916 C117.008474,9.40662549 117.863945,8.89098815 118.38582,8.40845346 C120.076544,6.83989742 121.37681,4.84482655 122.496377,2.92487321 C131.540109,4.70986961 146.175361,6.01233133 151.399168,0.000381953581 L151.399168,0.000381953581 Z" id="Fill-1" fill="#A49169" mask="url(#mask-2)"></path>
            </g>
        </g>
    </g>
</svg>