<?xml version="1.0" encoding="UTF-8" standalone="no"?>
<svg width="21px" height="20px" viewBox="0 0 21 20" version="1.1" xmlns="http://www.w3.org/2000/svg" xmlns:xlink="http://www.w3.org/1999/xlink">
    <!-- Generator: Sketch 45.2 (43514) - http://www.bohemiancoding.com/sketch -->
    <title>instagram-logo</title>
    <desc>Created with Sketch.</desc>
    <defs>
        <polygon id="path-1" points="0.00882352941 0.110294118 0.00882352941 20 19.8897059 20 19.8897059 0.110294118"></polygon>
    </defs>
    <g id="Page-1" stroke="none" stroke-width="1" fill="none" fill-rule="evenodd">
        <g id="Landingpage-1920" transform="translate(-1481.000000, -5675.000000)">
            <g id="social-media-icon-set" transform="translate(1344.000000, 5675.000000)">
                <g id="Group-19">
                    <g id="instagram-logo" transform="translate(137.667083, 0.000000)">
                        <g id="Group-3">
                            <mask id="mask-2" fill="white">
                                <use xlink:href="#path-1"></use>
                            </mask>
                            <g id="Clip-2"></g>
                            <path d="M14.4008824,0.110294118 L5.48882353,0.110294118 C2.46205882,0.110294118 0,2.5725 0,5.59926471 L0,14.5111765 C0,17.5379412 2.46205882,20 5.48882353,20 L14.4008824,20 C17.4276471,20 19.8897059,17.5373529 19.8897059,14.5111765 L19.8897059,5.59926471 C19.8897059,2.5725 17.4276471,0.110294118 14.4008824,0.110294118 Z M18.125,14.5111765 C18.125,16.5648529 16.4545588,18.2352941 14.4008824,18.2352941 L5.48882353,18.2352941 C3.43514706,18.2352941 1.76470588,16.5648529 1.76470588,14.5111765 L1.76470588,5.59926471 C1.76470588,3.54558824 3.43514706,1.875 5.48882353,1.875 L14.4008824,1.875 C16.4545588,1.875 18.125,3.54558824 18.125,5.59926471 L18.125,14.5111765 Z" id="Fill-1" fill="#A49169" mask="url(#mask-2)"></path>
                        </g>
                        <path d="M9.94485294,4.93058824 C7.11852941,4.93058824 4.81955882,7.22955882 4.81955882,10.0551471 C4.81955882,12.8814706 7.11852941,15.1804412 9.94485294,15.1804412 C12.7705882,15.1804412 15.0701471,12.8814706 15.0701471,10.0551471 C15.0701471,7.22955882 12.7705882,4.93058824 9.94485294,4.93058824 Z M9.94485294,13.4151471 C8.09220588,13.4151471 6.58426471,11.9083824 6.58426471,10.0551471 C6.58426471,8.20264706 8.09161765,6.69470588 9.94485294,6.69470588 C11.7980882,6.69470588 13.3054412,8.20264706 13.3054412,10.0551471 C13.3054412,11.9083824 11.7975,13.4151471 9.94485294,13.4151471 Z" id="Fill-4" fill="#A49169"></path>
                        <path d="M15.285,3.43411765 C14.9448529,3.43411765 14.6110294,3.57147059 14.3710294,3.81264706 C14.1291176,4.05279412 13.9907353,4.38705882 13.9907353,4.72838235 C13.9907353,5.06838235 14.1297059,5.40220588 14.3710294,5.64338235 C14.6105882,5.88352941 14.9448529,6.02205882 15.285,6.02205882 C15.6261765,6.02205882 15.9588235,5.88352941 16.2,5.64338235 C16.4413235,5.40220588 16.5791176,5.06779412 16.5791176,4.72838235 C16.5791176,4.38705882 16.4413235,4.05279412 16.2,3.81264706 C15.9598529,3.57147059 15.6261765,3.43411765 15.285,3.43411765 Z" id="Fill-5" fill="#A49169"></path>
                    </g>
                </g>
            </g>
        </g>
    </g>
</svg>