<?xml version="1.0" encoding="UTF-8" standalone="no"?>
<svg width="30px" height="18px" viewBox="0 0 30 18" version="1.1" xmlns="http://www.w3.org/2000/svg" xmlns:xlink="http://www.w3.org/1999/xlink">
    <!-- Generator: Sketch 45.2 (43514) - http://www.bohemiancoding.com/sketch -->
    <title>tripadvisor</title>
    <desc>Created with Sketch.</desc>
    <defs></defs>
    <g id="Page-1" stroke="none" stroke-width="1" fill="none" fill-rule="evenodd">
        <g id="Landingpage-1920" transform="translate(-1573.000000, -5676.000000)" fill-rule="nonzero">
            <g id="social-media-icon-set" transform="translate(1344.000000, 5675.000000)">
                <g id="tripadvisor" transform="translate(229.333333, 1.333333)">
                    <path d="M5.06399421,3.69667101 C7.81550017,3.34172399 15.6218603,3.09721399 13.4831488,14.3773743 L15.9089908,14.1800198 C14.8463619,7.22690639 17.0690452,3.681622 24.0192536,3.34172399 C12.4920101,-3.04156468 5.9289367,3.58503473 5.06399421,3.69667101 Z" id="Shape"></path>
                    <path d="M15.7952936,12.5910657 C17.0595875,16.0117737 20.8574259,17.7600109 24.2782256,16.4959653 C27.6990253,15.2319197 29.4475381,11.4342082 28.1837408,8.01331675 C26.9199435,4.59242534 23.1223589,2.84363682 19.7013758,4.10718583 C16.2806072,5.37198511 14.5320891,9.16970791 15.7952936,12.5910657 L15.7952936,12.5910657 Z" id="Shape"></path>
                    <circle id="Oval" cx="7.35043051" cy="10.2758355" r="6.60489623"></circle>
                    <circle id="Oval" fill="#A49169" cx="7.2556596" cy="10.2111626" r="1.22086172"></circle>
                    <circle id="Oval" fill="#A49169" cx="21.9737993" cy="10.2111626" r="1.22032612"></circle>
                    <path d="M27.8847587,5.92645667 C28.1919378,4.87109562 28.6806771,3.87733687 29.3290444,2.98977513 L24.4276318,2.98600852 C21.4965343,1.15087398 18.0954492,0.206741153 14.6378124,0.268378833 C11.0954584,0.192496514 7.60753439,1.14878496 4.59920399,3.02067654 L0,3.0232439 C0.642492238,3.90404903 1.12877724,4.88875345 1.43760819,5.93433338 C-0.930889318,9.15167614 -0.28981168,13.6726721 2.8797692,16.1047148 C6.04935009,18.5367576 10.5822063,17.9857592 13.0768314,14.865195 L14.6398674,17.2053537 L16.2179699,14.8455236 C18.6982735,18.0109058 23.2632176,18.5925082 26.4579805,16.1501649 C29.6527433,13.7078215 30.2887937,9.15014499 27.8847587,5.92645667 L27.8847587,5.92645667 Z M21.7555683,2.965557 C18.0058492,3.07448754 14.9454855,6.00071372 14.6687138,9.74179071 C14.3899331,5.96416147 11.28484,3.01765759 7.49779436,2.93711816 C9.75973938,1.99730381 12.1885101,1.52505582 14.6378124,1.54881949 C17.0839481,1.5117535 19.5100616,1.99465374 21.7555683,2.965557 L21.7555683,2.965557 Z M7.35062263,16.1372292 C4.9793797,16.1374717 2.84151659,14.7091798 1.93404644,12.5184514 C1.02657628,10.327723 1.52823892,7.80605475 3.20507913,6.12945103 C4.88191933,4.45284731 7.40365832,3.95154034 9.59425873,4.85931947 C11.7848591,5.76709859 13.2128494,7.90516313 13.2122725,10.276406 C13.2079869,13.5117951 10.5860123,16.1333999 7.35062263,16.1372292 L7.35062263,16.1372292 Z M24.0204528,15.8045384 C20.9829203,16.924123 17.6126542,15.3712391 16.4900397,12.3348251 L16.4900397,12.3332008 C15.3698495,9.29564619 16.9239909,5.92510271 19.9614351,4.80461327 C22.9988794,3.68412383 26.369576,5.2379331 27.4903647,8.27526694 C28.6111534,11.3126008 27.0576762,14.6834505 24.0204528,15.8045384 Z" id="Shape" fill="#A49169"></path>
                    <path d="M7.25996181,6.5839557 C5.79225026,6.58181457 4.46787909,7.46432601 3.90478034,8.81972322 C3.34168159,10.1751204 3.65083255,11.7362774 4.68798795,12.7747814 C5.72514336,13.8132853 7.28589731,14.1244646 8.64202507,13.5631275 C9.99815282,13.0017905 10.8823844,11.6785671 10.8821504,10.210854 C10.8788614,8.21097462 9.25983526,6.5898434 7.25996181,6.5839557 Z M7.25996181,12.5894415 C6.29767968,12.591333 5.42909081,12.0131442 5.05949464,11.1246684 C4.68989846,10.2361927 4.89214257,9.21254907 5.57185617,8.53138837 C6.25156977,7.85022767 7.27478097,7.64580702 8.16404073,8.01351282 C9.05330049,8.38121862 9.63333527,9.24857588 9.63349024,10.2108599 C9.63049817,11.5213026 8.57039526,12.5836625 7.25996181,12.5894415 Z" id="Shape" fill="#A49169"></path>
                    <path d="M21.9737993,6.5839557 C20.5063976,6.58319976 19.1830763,7.46659057 18.6210565,8.82209862 C18.0590367,10.1776067 18.3690338,11.7382028 19.4064596,12.7759967 C20.4438853,13.8137906 22.0043714,14.1243414 23.3600788,13.5628025 C24.7157861,13.0012637 25.5996464,11.6782559 25.5994111,10.210854 C25.5967765,8.20936778 23.9752845,6.58730036 21.9737993,6.5839557 Z M21.9737993,12.5894415 C21.0118686,12.5897735 20.144464,12.0105964 19.7760831,11.1219985 C19.4077021,10.2334005 19.6108975,9.21039097 20.2909129,8.53003087 C20.9709284,7.84967076 21.9938348,7.64595696 22.8826193,8.01388752 C23.7714038,8.38181807 24.3510204,9.24892909 24.3511759,10.2108599 C24.3494905,11.5233452 23.2862836,12.5870909 21.9737993,12.5894415 Z" id="Shape" fill="#A49169"></path>
                </g>
            </g>
        </g>
    </g>
</svg>