<?xml version="1.0" encoding="UTF-8" standalone="no"?>
<svg width="16px" height="20px" viewBox="0 0 16 20" version="1.1" xmlns="http://www.w3.org/2000/svg" xmlns:xlink="http://www.w3.org/1999/xlink">
    <!-- Generator: Sketch 45.2 (43514) - http://www.bohemiancoding.com/sketch -->
    <title>Fill 1</title>
    <desc>Created with Sketch.</desc>
    <defs></defs>
    <g id="Page-1" stroke="none" stroke-width="1" fill="none" fill-rule="evenodd">
        <g id="Landingpage-1920" transform="translate(-1435.000000, -5675.000000)" fill="#A49169">
            <g id="social-media-icon-set" transform="translate(1344.000000, 5675.000000)">
                <g id="Group-19">
                    <g id="pinterest" transform="translate(91.334167, 0.000000)">
                        <path d="M13.57344,2.11032 C12.20752,0.79904 10.3172,0.07688 8.25096,0.07688 C5.0944,0.07688 3.15312,1.37064 2.08032,2.45624 C0.75816,3.79376 0,5.56968 0,7.32904 C0,9.53784 0.92376,11.23312 2.47128,11.86408 C2.57504,11.90656 2.67936,11.92784 2.78184,11.92784 C3.1084,11.92784 3.36688,11.7144 3.45656,11.37184 C3.50872,11.17528 3.62968,10.69032 3.68248,10.48 C3.79504,10.06408 3.70408,9.8644 3.4584,9.57472 C3.01096,9.04528 2.80248,8.41904 2.80248,7.6044 C2.80248,5.18408 4.60472,2.61152 7.94496,2.61152 C10.59528,2.61152 12.24184,4.11816 12.24184,6.5428 C12.24184,8.07312 11.91216,9.49 11.31376,10.53312 C10.89752,11.25816 10.16592,12.12216 9.04312,12.12216 C8.55752,12.12216 8.12128,11.92248 7.84592,11.57472 C7.58592,11.24592 7.50032,10.82128 7.60472,10.37872 C7.7228,9.87872 7.88408,9.35688 8.04,8.85248 C8.3244,7.93152 8.59312,7.06152 8.59312,6.36752 C8.59312,5.18032 7.86312,4.38248 6.7772,4.38248 C5.39688,4.38248 4.31528,5.78472 4.31528,7.5744 C4.31528,8.45216 4.54872,9.10872 4.65408,9.36064 C4.48032,10.09752 3.44688,14.47784 3.25096,15.30376 C3.13752,15.78592 2.45472,19.59408 3.58472,19.89784 C4.85472,20.23904 5.98968,16.53 6.10528,16.11096 C6.19872,15.77 6.52656,14.48128 6.7272,13.68872 C7.34032,14.27936 8.3272,14.6784 9.28752,14.6784 C11.09816,14.6784 12.72624,13.86376 13.87248,12.3844 C14.98376,10.94968 15.59592,8.95 15.59592,6.75376 C15.59592,5.03688 14.85872,3.3444 13.57344,2.11032 Z" id="Fill-1"></path>
                    </g>
                </g>
            </g>
        </g>
    </g>
</svg>