<?xml version="1.0" encoding="UTF-8" standalone="no"?>
<svg width="21px" height="20px" viewBox="0 0 21 20" version="1.1" xmlns="http://www.w3.org/2000/svg" xmlns:xlink="http://www.w3.org/1999/xlink">
    <!-- Generator: Sketch 45.2 (43514) - http://www.bohemiancoding.com/sketch -->
    <title>linkedin-logo</title>
    <desc>Created with Sketch.</desc>
    <defs></defs>
    <g id="Page-1" stroke="none" stroke-width="1" fill="none" fill-rule="evenodd">
        <g id="Landingpage-1920" transform="translate(-1532.000000, -5675.000000)" fill="#A49169">
            <g id="social-media-icon-set" transform="translate(1344.000000, 5675.000000)">
                <g id="Group-19">
                    <path d="M208.567143,12.0489177 L208.567143,19.653333 L204.158347,19.653333 L204.158347,12.5588115 C204.158347,10.7768971 203.521337,9.56057911 201.925669,9.56057911 C200.707066,9.56057911 199.982931,10.3795513 199.663855,11.1728146 C199.547879,11.4561841 199.5176,11.850102 199.5176,12.2474478 L199.5176,19.653333 L195.107947,19.653333 C195.107947,19.653333 195.167078,7.63669431 195.107947,6.39266784 L199.5176,6.39266784 L199.5176,8.27170484 C199.508745,8.28627323 199.496461,8.30084162 199.488749,8.31512436 L199.5176,8.31512436 L199.5176,8.27170484 C200.103478,7.37017842 201.148974,6.08130415 203.491058,6.08130415 C206.392453,6.08130415 208.567143,7.97605216 208.567143,12.0489177 Z M190.494909,3.73034936e-13 C188.986366,3.73034936e-13 188,0.989793738 188,2.29095116 C188,3.56411442 188.958372,4.58275929 190.436921,4.58275929 L190.466058,4.58275929 C192.003737,4.58275929 192.959824,3.56411442 192.959824,2.29095116 C192.930972,0.989793738 192.003737,3.73034936e-13 190.494909,3.73034936e-13 Z M188.262231,19.653333 L192.669884,19.653333 L192.669884,6.39266784 L188.262231,6.39266784 L188.262231,19.653333 Z" id="linkedin-logo"></path>
                </g>
            </g>
        </g>
    </g>
</svg>