<?xml version="1.0" encoding="UTF-8" standalone="no"?>
<svg width="22px" height="18px" viewBox="0 0 22 18" version="1.1" xmlns="http://www.w3.org/2000/svg" xmlns:xlink="http://www.w3.org/1999/xlink">
    <!-- Generator: Sketch 45.2 (43514) - http://www.bohemiancoding.com/sketch -->
    <title>twitter-logo-silhouette</title>
    <desc>Created with Sketch.</desc>
    <defs></defs>
    <g id="Page-1" stroke="none" stroke-width="1" fill="none" fill-rule="evenodd">
        <g id="Landingpage-1920" transform="translate(-1383.000000, -5677.000000)" fill="#A49169">
            <g id="social-media-icon-set" transform="translate(1344.000000, 5675.000000)">
                <g id="Group-19">
                    <path d="M61.00125,4.71666667 C60.2195833,5.06333333 59.3729167,5.30333333 58.4879167,5.40833333 C59.3929167,4.86666667 60.0829167,4.00833333 60.4145833,2.985 C59.5679167,3.48666667 58.63125,3.85166667 57.6279167,4.04666667 C56.8345833,3.2 55.6945833,2.66666667 54.4379167,2.66666667 C52.0229167,2.66666667 50.0629167,4.62666667 50.0629167,7.04166667 C50.0629167,7.38666667 50.1029167,7.71833333 50.1745833,8.03833333 C46.5345833,7.855 43.3129167,6.11666667 41.15125,3.46666667 C40.7729167,4.11166667 40.5579167,4.86666667 40.5579167,5.66833333 C40.5579167,7.185 41.3329167,8.52666667 42.5045833,9.30666667 C41.7879167,9.28833333 41.1179167,9.08666667 40.52625,8.76 L40.52625,8.81333333 C40.52625,10.935 42.03625,12.705 44.0345833,13.11 C43.6695833,13.2066667 43.2795833,13.2583333 42.8829167,13.2583333 C42.6029167,13.2583333 42.3295833,13.2333333 42.05625,13.1816667 C42.61625,14.92 44.2295833,16.1816667 46.1445833,16.2216667 C44.64625,17.3933333 42.7579167,18.09 40.7079167,18.09 C40.35625,18.09 40.01125,18.07 39.66625,18.0316667 C41.60625,19.275 43.9045833,19.9966667 46.3779167,19.9966667 C54.4245833,19.9966667 58.82625,13.33 58.82625,7.55 L58.8129167,6.98333333 C59.6729167,6.365 60.4145833,5.59666667 61.00125,4.71666667 Z" id="twitter-logo-silhouette"></path>
                </g>
            </g>
        </g>
    </g>
</svg>